<svg width="221" height="220" fill="none" xmlns="http://www.w3.org/2000/svg"><path d="m33.355 45.046 171.881-16.128a5.593 5.593 0 0 1 2.201.238 5.212 5.212 0 0 1 1.882 1.063c.534.474.947 1.05 1.208 1.685.262.636.366 1.316.306 1.992L196.126 185.62c-.168 1.795-1.097 3.462-2.591 4.65-1.494 1.188-3.437 1.805-5.421 1.721l-166.942-8.163c-1.35-.072-2.616-.625-3.52-1.539-.905-.913-1.375-2.113-1.309-3.34L26.441 51.617c.128-1.654.889-3.216 2.152-4.416 1.262-1.2 2.947-1.962 4.762-2.155Z" fill="#4D71DA" style="fill:color(display-p3 .302 .4431 .8549);fill-opacity:1"/><path d="m27.097 43.354 173.856-16.327a5.57 5.57 0 0 1 2.235.235 5.18 5.18 0 0 1 1.904 1.088 4.568 4.568 0 0 1 1.199 1.727 4.21 4.21 0 0 1 .26 2.027l-14.817 153.417c-.149 1.821-1.088 3.514-2.61 4.708-1.523 1.194-3.505 1.793-5.513 1.664L14.695 183.63a5.502 5.502 0 0 1-1.963-.453 5.056 5.056 0 0 1-1.613-1.11 4.529 4.529 0 0 1-1.009-1.592 4.22 4.22 0 0 1-.245-1.823L20.073 49.825c.192-1.64.991-3.172 2.267-4.347 1.276-1.175 2.953-1.924 4.757-2.124Z" fill="#66CFFF" style="fill:color(display-p3 .4 .8118 1);fill-opacity:1"/><path d="m45.098 76.407-7.902.398-.988 13.34L44 89.948l1.097-13.54Z" fill="#F428B4" style="fill:color(display-p3 .9569 .1569 .7059);fill-opacity:1"/><path d="m36.209 90.146-.55 6.57 7.794-.198.548-6.571-7.792.199Z" fill="#000040" style="fill:color(display-p3 0 0 .251);fill-opacity:1"/><path d="m62.11 58.288-7.902.497L52.89 76.01l7.793-.299 1.426-17.422Z" fill="#F428B4" style="fill:color(display-p3 .9569 .1569 .7059);fill-opacity:1"/><path d="m52.89 76.009-1.646 20.31 7.793-.2 1.646-20.409-7.793.299Z" fill="#000040" style="fill:color(display-p3 0 0 .251);fill-opacity:1"/><path d="m69.354 64.56-.878 10.752 7.793-.398.878-10.852-7.793.498Z" fill="#F428B4" style="fill:color(display-p3 .9569 .1569 .7059);fill-opacity:1"/><path d="M68.475 75.312 66.83 96.02l7.793-.2 1.646-20.906-7.793.398Z" fill="#000040" style="fill:color(display-p3 0 0 .251);fill-opacity:1"/><path d="m91.856 74.117-7.793.398-.549 7.567 7.793-.399.549-7.566Z" fill="#F428B4" style="fill:color(display-p3 .9569 .1569 .7059);fill-opacity:1"/><path d="m83.514 82.082-1.098 13.54 7.793-.2 1.097-13.739-7.792.399Z" fill="#000040" style="fill:color(display-p3 0 0 .251);fill-opacity:1"/><path d="m108.428 62.07-.987 11.35-.549 7.467-7.793.398.549-7.566.988-11.15 7.792-.498Z" fill="#F428B4" style="fill:color(display-p3 .9569 .1569 .7059);fill-opacity:1"/><path d="m99.098 81.285-1.207 13.938 7.793-.1 1.207-14.236-7.793.398ZM171.1 53.907l-13.939 20.011-12.183-15.033c4.719-3.594 10.544-5.784 16.683-6.272 3.213-.21 6.438.231 9.439 1.294Z" fill="#000040" style="fill:color(display-p3 0 0 .251);fill-opacity:1"/><path d="m181.941 72.418-24.805 1.593L171.075 54c7.683 2.788 12.183 9.757 10.866 18.418Z" fill="#FBFCFF" style="fill:color(display-p3 .9833 .9875 1);fill-opacity:1"/><path d="M181.965 72.325c0 .299-.109.597-.109.896-2.305 11.847-14.488 21.704-27.33 22.6l2.634-21.903 24.805-1.593Z" fill="#000040" style="fill:color(display-p3 0 0 .251);fill-opacity:1"/><path d="m157.16 73.918-2.634 21.902c-.691.083-1.388.117-2.085.1-13.061 0-21.074-9.657-18.33-21.305 1.586-6.169 5.413-11.674 10.866-15.63l12.183 14.933Z" fill="#FBFCFF" style="fill:color(display-p3 .9833 .9875 1);fill-opacity:1"/><path d="m178.454 112.845-5.708 50.475-143.453-2.389.22-3.883 31.061-19.414a4.242 4.242 0 0 1 2.378-.659 4.21 4.21 0 0 1 2.342.759l11.634 7.765c.431.291.922.5 1.443.617.521.118 1.063.14 1.594.066a4.326 4.326 0 0 0 1.498-.497 3.947 3.947 0 0 0 1.172-.982l11.525-13.938a4.002 4.002 0 0 1 1.464-1.102 4.406 4.406 0 0 1 1.857-.376c.643.01 1.274.158 1.842.432a3.95 3.95 0 0 1 1.422 1.146l10.208 12.842a3.93 3.93 0 0 0 1.19 1.012c.467.262.988.435 1.532.509a4.485 4.485 0 0 0 1.629-.076 4.274 4.274 0 0 0 1.466-.648 4.401 4.401 0 0 1 2.397-.758 4.437 4.437 0 0 1 2.432.658l7.244 4.679c.452.289.962.492 1.502.598a4.537 4.537 0 0 0 1.639.02 4.38 4.38 0 0 0 1.518-.561c.46-.277.854-.635 1.158-1.052l16.244-22.699a3.957 3.957 0 0 1 1.159-1.053 4.371 4.371 0 0 1 1.518-.56 4.537 4.537 0 0 1 1.639.02c.54.106 1.05.309 1.502.597l4.719 3.087c.431.291.921.502 1.443.62.521.118 1.064.14 1.595.066a4.306 4.306 0 0 0 1.499-.498 3.94 3.94 0 0 0 1.171-.985l11.305-13.838Z" fill="#F428B4" style="fill:color(display-p3 .9569 .1569 .7059);fill-opacity:1"/><path d="M74.075 128.873H67.82a1.11 1.11 0 0 0-.42.073 1.012 1.012 0 0 0-.348.226l-1.427 1.294c-.205.183-.481.285-.768.285-.288 0-.563-.102-.769-.285l-1.097-1.294a1.013 1.013 0 0 0-.348-.226 1.109 1.109 0 0 0-.42-.073h-6.037a.898.898 0 0 1-.677-.256.746.746 0 0 1-.181-.299.698.698 0 0 1-.02-.341l.878-10.752c.02-.258.142-.5.344-.683.201-.183.469-.294.753-.312l17.89-.598c.263 0 .514.095.7.263.185.168.289.396.289.633l-.988 11.25a.91.91 0 0 1-.05.412.992.992 0 0 1-.23.358c-.104.103-.23.185-.37.241-.142.056-.294.085-.448.084ZM132.659 134.342l-6.256-.099a1.074 1.074 0 0 0-.421.073 1.004 1.004 0 0 0-.348.225l-1.427 1.295a.995.995 0 0 1-.361.224 1.079 1.079 0 0 1-.852-.055.964.964 0 0 1-.323-.269l-1.098-1.294a1.002 1.002 0 0 0-.348-.226 1.088 1.088 0 0 0-.42-.073l-5.927-.099c-.549 0-.878-.399-.878-.996l.878-10.852c.014-.243.12-.475.3-.656.18-.181.423-.301.688-.339l17.89-.399c.139.003.275.031.401.083.126.052.239.127.332.221a.907.907 0 0 1 .207.322c.044.119.06.245.048.37l-.988 11.549a.862.862 0 0 1-.063.391.93.93 0 0 1-.237.332 1.04 1.04 0 0 1-.366.214 1.125 1.125 0 0 1-.431.058Z" fill="#FBFCFF" style="fill:color(display-p3 .9833 .9875 1);fill-opacity:1"/></svg>