<svg width="221" height="220" fill="none" xmlns="http://www.w3.org/2000/svg"><path d="m109.129 211.976-69.385-4.266a8.604 8.604 0 0 1-6.29-3.266 8.57 8.57 0 0 1-1.695-6.874L58.197 49.64a11.579 11.579 0 0 1 3.53-6.42 11.61 11.61 0 0 1 6.68-3.023l69.696-6.733a8.69 8.69 0 0 1 7.176 2.707 8.664 8.664 0 0 1 2.223 7.331l-26.331 158.816a11.412 11.412 0 0 1-4.14 7.167 11.442 11.442 0 0 1-7.902 2.491Z" fill="#4D71DA" style="fill:color(display-p3 .302 .4431 .8549);fill-opacity:1"/><path d="m105.329 211.504-69.39-4.26a8.621 8.621 0 0 1-6.29-3.266 8.585 8.585 0 0 1-1.695-6.875l26.439-147.93a11.578 11.578 0 0 1 3.529-6.42 11.61 11.61 0 0 1 6.68-3.022l69.718-6.734a8.696 8.696 0 0 1 7.175 2.725 8.655 8.655 0 0 1 2.207 7.34l-26.33 158.843a11.481 11.481 0 0 1-4.172 7.113 11.508 11.508 0 0 1-7.871 2.486Z" fill="#66CFFF" style="fill:color(display-p3 .4 .8118 1);fill-opacity:1"/><mask id="a" style="mask-type:luminance" maskUnits="userSpaceOnUse" x="27" y="32" width="117" height="180"><path d="m105.329 211.504-69.39-4.26a8.621 8.621 0 0 1-6.29-3.266 8.585 8.585 0 0 1-1.695-6.875l26.439-147.93a11.578 11.578 0 0 1 3.529-6.42 11.61 11.61 0 0 1 6.68-3.022l69.718-6.734a8.696 8.696 0 0 1 7.175 2.725 8.655 8.655 0 0 1 2.207 7.34l-26.33 158.843a11.481 11.481 0 0 1-4.172 7.113 11.508 11.508 0 0 1-7.871 2.486Z" fill="#fff" style="fill:#fff;fill-opacity:1"/></mask><g mask="url(#a)"><path d="m175.257 127.9-106.833 1.857a4.417 4.417 0 0 1-3.435-1.55 4.398 4.398 0 0 1-.982-3.633l7.83-44.533a5.68 5.68 0 0 1 1.77-3.188 5.695 5.695 0 0 1 3.345-1.458l105.436-7.045a5.614 5.614 0 0 1 5.757 4.006c.24.81.292 1.663.154 2.497l-7.765 48.401a5.218 5.218 0 0 1-1.739 3.342 5.231 5.231 0 0 1-3.538 1.304Z" fill="#4D71DA" style="fill:color(display-p3 .302 .4431 .8549);fill-opacity:1"/></g><mask id="b" style="mask-type:luminance" maskUnits="userSpaceOnUse" x="27" y="32" width="117" height="180"><path d="m105.329 211.504-69.39-4.26a8.621 8.621 0 0 1-6.29-3.266 8.585 8.585 0 0 1-1.695-6.875l26.439-147.93a11.578 11.578 0 0 1 3.529-6.42 11.61 11.61 0 0 1 6.68-3.022l69.718-6.734a8.696 8.696 0 0 1 7.175 2.725 8.655 8.655 0 0 1 2.207 7.34l-26.33 158.843a11.481 11.481 0 0 1-4.172 7.113 11.508 11.508 0 0 1-7.871 2.486Z" fill="#fff" style="fill:#fff;fill-opacity:1"/></mask><g mask="url(#b)"><path d="m163.471 199.635-106.833-4.641a4.482 4.482 0 0 1-4.186-5.188l8.06-45.606a5.645 5.645 0 0 1 5.503-4.641l105.592-.853a5.65 5.65 0 0 1 4.294 1.965 5.627 5.627 0 0 1 1.289 4.538l-7.91 49.775a5.614 5.614 0 0 1-2.023 3.422 5.629 5.629 0 0 1-3.786 1.229Z" fill="#4D71DA" style="fill:color(display-p3 .302 .4431 .8549);fill-opacity:1"/></g><path d="m52.765 58.08 89.621-7.125" stroke="#4D71DA" style="stroke:color(display-p3 .302 .4431 .8549);stroke-opacity:1" stroke-width="2.6" stroke-linecap="round" stroke-linejoin="round"/><path d="m98.35 47.317-7.674.698c-.699.08-1.075-.462-1.01-1.24a1.818 1.818 0 0 1 1.472-1.47l7.679-.697c.698-.075 1.16.466 1.005 1.24a1.898 1.898 0 0 1-1.473 1.47ZM103.465 46.856c-.699.075-1.161-.467-1.005-1.24a1.81 1.81 0 0 1 1.472-1.47c.699-.08 1.161.462 1.005 1.24a1.643 1.643 0 0 1-1.472 1.47Z" fill="#22272E" style="fill:color(display-p3 .1333 .1529 .1804);fill-opacity:1"/><path d="m189.83 52.12-29.555 2.242a1.567 1.567 0 0 1-1.709-1.857l2.945-17.882a2.379 2.379 0 0 1 2.149-2.012l29.227-3.096a1.91 1.91 0 0 1 2.016 1.294c.091.275.118.566.08.852l-2.87 18.425a2.72 2.72 0 0 1-2.283 2.033Z" fill="#F428B4" stroke="#850E60" style="fill:color(display-p3 .9569 .1569 .7059);fill-opacity:1;stroke:color(display-p3 .5208 .0564 .3751);stroke-opacity:1" stroke-width="2.6" stroke-linecap="round" stroke-linejoin="round"/><path d="m162.312 33.077 12.848 8.28a2.1 2.1 0 0 0 2.321 0l16.75-11.456" fill="#F428B4" style="fill:color(display-p3 .9569 .1569 .7059);fill-opacity:1"/><path d="m162.312 33.077 12.848 8.28a2.1 2.1 0 0 0 2.321 0l16.75-11.456" stroke="#850E60" style="stroke:color(display-p3 .5208 .0564 .3751);stroke-opacity:1" stroke-width="2.6" stroke-linecap="round" stroke-linejoin="round"/><path d="m56.564 85.556-24.267 1.32-3.568 2.318a1.114 1.114 0 0 1-1.704-1.159l3.8-21.053a3.754 3.754 0 0 1 3.411-3.096l25.257-1.937a2.524 2.524 0 0 1 2.649 1.797c.11.37.131.762.064 1.143L58.95 83.314a2.617 2.617 0 0 1-2.386 2.243Z" fill="#F428B4" style="fill:color(display-p3 .9569 .1569 .7059);fill-opacity:1"/><path d="m35.553 70.077 20.468-1.47M34.623 75.26l20.468-1.39M33.694 80.374l10.7-.623" stroke="#850E60" style="stroke:color(display-p3 .5208 .0564 .3751);stroke-opacity:1" stroke-width="2.6" stroke-linecap="round" stroke-linejoin="round"/><path d="M169.518 123.179 62.69 125.056a4.42 4.42 0 0 1-4.337-3.255 4.403 4.403 0 0 1-.085-1.927l7.829-44.533a5.68 5.68 0 0 1 1.772-3.19 5.695 5.695 0 0 1 3.35-1.457l105.435-7.044a5.62 5.62 0 0 1 4.53 1.824 5.591 5.591 0 0 1 1.381 4.678l-7.754 48.38a5.275 5.275 0 0 1-5.293 4.647Z" fill="#000040" style="fill:color(display-p3 0 0 .251);fill-opacity:1"/><path d="M90.364 89.505c-.537 3.177-3.332 5.902-6.201 6.036-2.87.135-4.729-2.317-4.186-5.494.543-3.176 3.332-5.902 6.201-6.036 2.87-.134 4.729 2.323 4.186 5.494Z" fill="#66CFFF" style="fill:color(display-p3 .4 .8118 1);fill-opacity:1"/><path d="m88.349 109.867-12.715.386a2.723 2.723 0 0 1-2.154-.923 2.708 2.708 0 0 1-.634-2.253l.23-1.395c1.006-5.725 5.97-10.602 11.162-10.73 5.196-.231 8.683 4.335 7.679 10.14l-.312 2.012a3.47 3.47 0 0 1-3.257 2.763Z" fill="#66CFFF" style="fill:color(display-p3 .4 .8118 1);fill-opacity:1"/><path d="M158.045 90.047 107.42 92.37a1.615 1.615 0 0 1-1.686-1.196 1.625 1.625 0 0 1-.018-.74l.538-3.408a2.543 2.543 0 0 1 2.326-2.087l50.701-2.634a1.615 1.615 0 0 1 1.685 1.196c.064.242.07.496.018.74l-.618 3.719a2.403 2.403 0 0 1-2.321 2.087Z" fill="#F428B4" style="fill:color(display-p3 .9569 .1569 .7059);fill-opacity:1"/><path d="m106.877 101.502.774 2.404 2.408.386-2.096 2.088-.156 2.709-2.015-1.084-2.483 1.24.78-2.71-1.398-1.931 2.558-.623 1.628-2.479ZM118.505 101.116l.855 2.398 2.402.392-2.091 2.087-.08 2.71-2.171-1.084-2.477 1.239.773-2.709-1.397-2.012 2.558-.542 1.628-2.479ZM130.446 100.655l.855 2.398 2.477.461-2.171 2.093-.075 2.784-2.171-1.158-2.558 1.314.774-2.785-1.473-2.012 2.714-.622 1.628-2.473ZM142.617 100.188l.855 2.479 2.558.386-2.171 2.167-.076 2.785-2.251-1.159-2.633 1.315.849-2.865-1.548-1.932 2.714-.622 1.703-2.554ZM155.1 99.72l.855 2.48 2.633.467-2.246 2.087-.081 2.865-2.327-1.159-2.633 1.314.855-2.865-1.553-2.012 2.713-.617 1.784-2.56Z" fill="#66CFFF" style="fill:color(display-p3 .4 .8118 1);fill-opacity:1"/><path d="m157.658 194.935-106.752-4.721a4.49 4.49 0 0 1-3.255-1.66 4.468 4.468 0 0 1-.932-3.529l8.06-45.606a5.636 5.636 0 0 1 1.913-3.313 5.653 5.653 0 0 1 3.59-1.333l105.592-.853a5.642 5.642 0 0 1 4.297 1.963 5.622 5.622 0 0 1 1.286 4.54l-7.904 49.791a5.71 5.71 0 0 1-5.895 4.721Z" fill="#000040" style="fill:color(display-p3 0 0 .251);fill-opacity:1"/><path d="M78.972 155.381c-.537 3.252-3.331 5.902-6.276 5.806-2.945-.097-4.729-2.683-4.186-5.961.543-3.278 3.332-5.805 6.201-5.805 2.87 0 4.88 2.709 4.261 5.96Z" fill="#66CFFF" style="fill:color(display-p3 .4 .8118 1);fill-opacity:1"/><path d="m76.72 176.28-12.714-.386a2.804 2.804 0 0 1-2.639-3.177l.312-1.609c1.01-5.902 5.97-10.533 11.167-10.452 5.19.075 8.678 4.952 7.593 10.913l-.307 1.937a3.372 3.372 0 0 1-3.412 2.774Z" fill="#66CFFF" style="fill:color(display-p3 .4 .8118 1);fill-opacity:1"/><path d="m146.497 160.178-50.63-.697a1.675 1.675 0 0 1-1.574-1.227 1.665 1.665 0 0 1-.039-.705l.618-3.563a2.49 2.49 0 0 1 2.483-2.087l50.7.387a1.657 1.657 0 0 1 1.246.6 1.657 1.657 0 0 1 .366 1.331l-.618 3.874a2.68 2.68 0 0 1-2.552 2.087Z" fill="#F428B4" style="fill:color(display-p3 .9569 .1569 .7059);fill-opacity:1"/><path d="m95.405 168.849.774 2.479 2.402.541-2.09 2.012-.076 2.785-2.096-1.314-2.482 1.159.773-2.785-1.316-2.012 2.483-.467 1.628-2.398ZM107.108 169.079l.779 2.479 2.477.617-2.171 2.018-.075 2.784-2.171-1.239-2.482 1.164.779-2.79-1.397-2.168 2.638-.386 1.623-2.479ZM119.049 169.391l.774 2.478 2.563.617-2.171 2.012-.156 2.866-2.171-1.315-2.558 1.159.849-2.785-1.472-2.167 2.638-.387 1.704-2.478ZM131.22 169.621l.854 2.554 2.558.623-2.246 2.092-.081 2.86-2.246-1.315-2.638 1.159.854-2.86-1.472-2.167 2.713-.467 1.704-2.479ZM143.628 169.932l.929 2.554 2.558.623-2.246 2.087-.081 2.94-2.246-1.389-2.714 1.239.849-2.946-1.547-2.087 2.789-.467 1.709-2.554Z" fill="#66CFFF" style="fill:color(display-p3 .4 .8118 1);fill-opacity:1"/><path d="M155.815 16.509a3.133 3.133 0 0 0-4.828.226 3.122 3.122 0 0 0 1.159 4.685 3.132 3.132 0 0 0 3.438-.495 3.093 3.093 0 0 0 .231-4.416Z" fill="#850E60" style="fill:color(display-p3 .5216 .0549 .3765);fill-opacity:1"/><path d="m151.612 9.234-.537-.617a4.918 4.918 0 0 0-5.337-1.318 4.923 4.923 0 0 0-1.649 1.006 4.9 4.9 0 0 0-.306 6.975l.537.623a5.906 5.906 0 0 1 1.317 2.473c.156.698.387 1.55.618 2.323a2.317 2.317 0 0 0 1.57 1.653 2.327 2.327 0 0 0 2.229-.488l3.487-3.177 3.493-3.17a2.288 2.288 0 0 0 .716-2.16 2.3 2.3 0 0 0-1.495-1.714c-.774-.306-1.548-.537-2.246-.773a8.812 8.812 0 0 1-2.397-1.636Z" fill="#F428B4" style="fill:color(display-p3 .9569 .1569 .7059);fill-opacity:1"/></svg>