<svg width="162" height="46" fill="none" xmlns="http://www.w3.org/2000/svg"><path d="M157.997 21.668v.43c0 2.496-.621 3.031-2.065 3.031-1.443 0-2.064-.535-2.064-3.03v-4.53h6.716V14.36h-6.716v-3.488h-4.003v3.488h-2.739v3.207h2.739v4.53c0 3.362 2.091 6.235 6.067 6.235 3.977 0 6.068-2.877 6.068-6.234v-.431h-4.003Zm-11.956 3.13c-1.37 0-1.912-.434-1.912-1.961V7.492h-4.004v15.476c0 3.18 2.092 5.038 5.709 5.038h.644v-3.208h-.441.004Zm-12.912-10.433v7.507c-.207 1.857-1.264 3.257-3.047 3.257-1.448 0-2.17-.585-2.17-3.488v-7.28h-4.003v7.764c0 3.765 2.247 6.211 5.552 6.211 1.834 0 3.048-1.119 3.668-2.238v1.908h4.004V14.365h-4.004Zm-17.251 5.268c-2.271-.434-2.84-.711-2.84-1.45 0-.788.593-1.145 2.325-1.145 1.627 0 2.041.357 2.4 1.223h3.797c-.644-2.75-2.868-4.227-6.326-4.227-3.457 0-6.251 1.296-6.251 4.173 0 3.103 3.461 3.945 5.99 4.43 2.22.43 2.607.611 2.607 1.577 0 .838-.8 1.119-2.556 1.119-2.041 0-2.478-.535-2.736-1.5h-3.796c.722 3.03 2.813 4.503 6.66 4.503 3.278 0 6.532-1.146 6.532-4.376 0-3.03-3.148-3.819-5.81-4.327h.004Zm-16.06-2.546c1.962 0 2.918.893 3.02 2.773h-6.224c.129-2.011 1.292-2.773 3.204-2.773Zm.05 8.196c-1.935 0-3.098-.816-3.332-3.08h10.149c.078-.458.129-.916.129-1.477 0-3.615-2.735-6.696-6.973-6.696-4.238 0-7.336 3.104-7.336 7.126 0 4.023 2.97 7.177 7.36 7.177 3.691 0 5.782-1.554 6.531-4.354h-3.874c-.309.992-.956 1.3-2.662 1.3l.008.004ZM80.062 13.142h2.66c2.4 0 3.411.561 3.411 2.342 0 1.961-1.007 2.342-3.305 2.342h-2.762v-4.684h-.004Zm12.034 14.864-5.089-7.584c2.092-1.02 3.41-2.8 3.41-4.938 0-3.307-2.762-5.803-7.694-5.803h-6.868v18.325h4.21v-7h2.713l4.495 7h4.83-.007ZM50.855 9.68v3.588h5.887v14.737h4.21V13.269h5.889V9.68H50.855Zm-6.638 18.325h4.21V9.68h-4.21v18.325Z" fill="#FBFCFF" style="fill:color(display-p3 .9833 .9875 1);fill-opacity:1"/><mask id="a" style="mask-type:luminance" maskUnits="userSpaceOnUse" x="6" y="0" width="29" height="36"><path d="M32.555.105c1.46.412 2.306 1.908 1.889 3.346l-8.573 29.631a3.808 3.808 0 0 1-3.055 2.696c-1.416.239-2.848-.361-3.73-1.48L6.884 18.733a3.723 3.723 0 0 1-.574-3.642c.477-1.265 1.624-2.165 2.97-2.423l8.818-1.688c1.491-.285 2.93.673 3.22 2.142.288 1.469-.683 2.888-2.174 3.173l-6.274 1.2 8.608 11.014L29.16 1.966C29.578.528 31.096-.306 32.555.105Z" fill="#fff" style="fill:#fff;fill-opacity:1"/></mask><g mask="url(#a)"><path d="M34.86-.307H5.85v36.323H34.86V-.307Z" fill="url(#b)"/></g><mask id="c" style="mask-type:luminance" maskUnits="userSpaceOnUse" x="11" y="10" width="11" height="8"><path d="M13.681 11.826c-4.105 1.789-1.057 5.361-.784 5.67l6.25-1.197c1.491-.284 2.463-1.707 2.174-3.176-.289-1.47-1.732-2.427-3.219-2.143l-4.421.846Z" fill="#fff" style="fill:#fff;fill-opacity:1"/></mask><g mask="url(#c)"><path d="M21.609 10.696H9.571v6.8H21.61v-6.8Z" fill="url(#d)"/></g><mask id="e" style="mask-type:luminance" maskUnits="userSpaceOnUse" x="21" y="20" width="8" height="12"><path d="m27.829 26.321.578-2.003.058-.208c.34-1.346-.332-2.584-1.709-3.019-1.444-.457-3.098.073-3.567 1.492l-1.712 5.927c1.685 2.13 4.627 3.541 5.111 2.084l1.237-4.277.004.004Z" fill="#fff" style="fill:#fff;fill-opacity:1"/></mask><g mask="url(#e)"><path d="M28.808 20.633H21.48v11.418h7.328V20.633Z" fill="url(#f)"/></g><path d="M2.224 5.108 20.447 1.62c1.49-.284 2.93.673 3.219 2.142.288 1.47-.683 2.889-2.174 3.173L3.274 10.427c-1.49.285-2.93-.673-3.223-2.142-.289-1.469.683-2.888 2.173-3.173" fill="#F428B4" style="fill:color(display-p3 .9569 .1569 .7059);fill-opacity:1"/><path d="M2.224 5.108 20.447 1.62c1.49-.284 2.93.673 3.219 2.142.288 1.47-.683 2.889-2.174 3.173L3.274 10.427c-1.49.285-2.93-.673-3.223-2.142-.289-1.469.683-2.888 2.173-3.173" fill="#F428B4" style="fill:color(display-p3 .9569 .1569 .7059);fill-opacity:1"/><g style="mix-blend-mode:multiply"><path d="M21.477 6.942c-.102-.7-1.124-4.884-10.98-3.415L2.223 5.108C.734 5.396-.238 6.816.051 8.285c.289 1.469 1.732 2.426 3.223 2.142L21.48 6.942h-.004Z" fill="#F428B4" style="fill:color(display-p3 .9569 .1569 .7059);fill-opacity:1"/></g><g style="mix-blend-mode:multiply"><path d="M21.477 6.942c-.102-.7-1.124-4.884-10.98-3.415L2.223 5.108C.734 5.396-.238 6.816.051 8.285c.289 1.469 1.732 2.426 3.223 2.142L21.48 6.942h-.004Z" fill="#F428B4" style="fill:color(display-p3 .9569 .1569 .7059);fill-opacity:1"/></g><g style="mix-blend-mode:multiply"><path d="M21.477 6.942c-.102-.7-1.124-4.884-10.98-3.415L2.223 5.108C.734 5.396-.238 6.816.051 8.285c.289 1.469 1.732 2.426 3.223 2.142L21.48 6.942h-.004Z" fill="#F428B4" style="fill:color(display-p3 .9569 .1569 .7059);fill-opacity:1"/></g><g style="mix-blend-mode:multiply"><path d="M21.477 6.942c-.102-.7-1.124-4.884-10.98-3.415L2.223 5.108C.734 5.396-.238 6.816.051 8.285c.289 1.469 1.732 2.426 3.223 2.142L21.48 6.942h-.004Z" fill="#F428B4" style="fill:color(display-p3 .9569 .1569 .7059);fill-opacity:1"/></g><path d="m136.473 38.335-1.467 3.884-1.479-3.884h-1.643l2.326 5.453c-.312.754-.426.927-1.003.927-.269 0-.496-.019-.683-.05v1.285c.258.03.663.05 1.054.05 1.158 0 1.635-.754 2.243-2.212l2.263-5.453h-1.611Zm-8.768 5.461V40.69c.133-.735.527-1.204 1.26-1.204.621 0 .828.235.828 1.365v2.946h1.603v-3.119c0-1.507-.69-2.477-2.068-2.477-.62 0-1.303.347-1.623.797v-.662h-1.604v5.461h1.604Zm-4.526-1.55c-.301.396-.632.48-1.253.48-.62 0-.808-.191-.808-.641 0-.481.207-.673.871-.673.663 0 .909.111 1.19.307v.531-.004Zm2.037.266c-.27 0-.434-.1-.434-.458v-1.7c0-1.365-.92-2.15-2.594-2.15-1.191 0-2.107.47-2.502 1.68h1.561c.133-.395.414-.48.952-.48.777 0 .984.254.984.889v.407a2.7 2.7 0 0 0-1.241-.277c-1.19 0-2.462.52-2.462 1.723 0 1.204 1.108 1.785 2.243 1.785.902 0 1.666-.327 1.912-.796.238.427.57.661 1.479.661h.238v-1.284h-.136Zm-11.031-1.877c.226-.885.682-1.15 1.58-1.15.897 0 1.354.42 1.354 1.538 0 1.12-.507 1.62-1.354 1.62-.96-.012-1.354-.266-1.58-1.15v-.858Zm-1.604-2.304v7.542h1.604V43.08c.3.48.839.846 1.685.846 1.573 0 2.915-1.242 2.915-2.904 0-1.661-1.272-2.823-2.915-2.823-.807 0-1.365.389-1.685.847v-.712h-1.604v-.004Zm-3.153-.13c-.878 0-1.405.365-1.842.988-.257-.53-.784-.989-1.623-.989-.538 0-1.167.327-1.491.816v-.685h-1.603v5.461h1.603v-3.138c.082-.742.547-1.173 1.159-1.173.496 0 .714.246.714 1.377v2.934h1.604v-3.107c.094-.827.457-1.204 1.167-1.204.495 0 .702.246.702 1.377v2.934h1.604v-3.107c0-1.508-.753-2.485-1.994-2.485Zm-10.606 4.441c-.928 0-1.428-.407-1.428-1.58s.496-1.58 1.428-1.58c.933 0 1.428.418 1.428 1.58 0 1.161-.507 1.58-1.428 1.58Zm0-4.442c-1.81 0-3.09 1.181-3.09 2.866 0 1.684 1.284 2.865 3.09 2.865 1.807 0 3.091-1.173 3.091-2.865 0-1.693-1.292-2.866-3.09-2.866Zm-7.257 4.32c-1.292 0-1.955-.766-1.955-2.404 0-1.639.6-2.385 1.955-2.385 1.24 0 1.517.481 1.705 1.173h1.685c-.35-1.303-1.19-2.576-3.39-2.576-2.201 0-3.692 1.526-3.692 3.791 0 2.266 1.499 3.812 3.692 3.812 2.192 0 3.184-1.366 3.441-2.712H93.31c-.145.773-.488 1.304-1.748 1.304l.004-.004Zm-13.408-6.062v1.439h2.357v5.9H82.2v-5.9h2.357v-1.439h-6.4ZM75.5 43.796h1.686v-7.338H75.5v7.338Z" fill="#FBFCFF" style="fill:color(display-p3 .9833 .9875 1);fill-opacity:1"/><defs><linearGradient id="b" x1="58.584" y1="-8.829" x2="-13.861" y2="43.224" gradientUnits="userSpaceOnUse"><stop stop-color="#66C3D0" style="stop-color:color(display-p3 .4 .7647 .8157);stop-opacity:1"/><stop offset=".01" stop-color="#68C4D4" style="stop-color:color(display-p3 .4078 .7686 .8314);stop-opacity:1"/><stop offset=".08" stop-color="#76CEEB" style="stop-color:color(display-p3 .4627 .8078 .9216);stop-opacity:1"/><stop offset=".15" stop-color="#7FD4FA" style="stop-color:color(display-p3 .498 .8314 .9804);stop-opacity:1"/><stop offset=".21" stop-color="#82D7FF" style="stop-color:color(display-p3 .5098 .8431 1);stop-opacity:1"/><stop offset=".5" stop-color="#56CBFF" style="stop-color:color(display-p3 .3373 .7961 1);stop-opacity:1"/><stop offset=".72" stop-color="#4316B5" style="stop-color:color(display-p3 .2627 .0863 .7098);stop-opacity:1"/><stop offset="1" stop-color="#393185" style="stop-color:color(display-p3 .2235 .1922 .5216);stop-opacity:1"/></linearGradient><linearGradient id="d" x1="11.222" y1="15.646" x2="17.417" y2="13.385" gradientUnits="userSpaceOnUse"><stop stop-color="#230A91" style="stop-color:color(display-p3 .1373 .0392 .5686);stop-opacity:1"/><stop offset="1" stop-color="#1DB5D4" style="stop-color:color(display-p3 .1137 .7098 .8314);stop-opacity:1"/></linearGradient><linearGradient id="f" x1="24.348" y1="31.344" x2="25.346" y2="24.909" gradientUnits="userSpaceOnUse"><stop stop-color="#26448A" style="stop-color:color(display-p3 .149 .2667 .5412);stop-opacity:1"/><stop offset="1" stop-color="#1DB5D4" style="stop-color:color(display-p3 .1137 .7098 .8314);stop-opacity:1"/></linearGradient></defs></svg>