<svg width="221" height="220" fill="none" xmlns="http://www.w3.org/2000/svg"><path d="m31.044 128.747 69.915 4.152c.623.005 1.294-.628 1.906-1.798.613-1.169 1.131-2.808 1.473-4.654l12.652-68.594c.187-1.025.301-2.093.334-3.123.033-1.03-.016-1.997-.143-2.827-.128-.83-.33-1.502-.592-1.965-.263-.463-.578-.706-.923-.71l-69.915-4.151c-.623-.005-1.294.628-1.906 1.797-.613 1.17-1.131 2.809-1.473 4.655L29.72 120.123a21.94 21.94 0 0 0-.31 3.098 15.888 15.888 0 0 0 .15 2.794c.126.822.324 1.493.58 1.965.257.472.565.734.904.767Z" fill="#000040" style="fill:color(display-p3 0 0 .251);fill-opacity:1"/><path d="m27.321 125.377 69.916 4.152c.623.004 1.293-.629 1.906-1.798.612-1.169 1.13-2.808 1.472-4.655l12.652-68.593c.187-1.025.301-2.093.334-3.124.033-1.03-.016-1.997-.143-2.827-.127-.83-.33-1.501-.592-1.964-.262-.463-.578-.706-.923-.71l-69.915-4.152c-.623-.004-1.294.629-1.906 1.798-.612 1.17-1.13 2.808-1.473 4.655l-12.652 68.594a21.896 21.896 0 0 0-.31 3.097 15.895 15.895 0 0 0 .15 2.795c.126.822.325 1.493.58 1.965.257.472.566.734.904.767Z" fill="#4D71DA" style="fill:color(display-p3 .302 .4431 .8549);fill-opacity:1"/><path d="M92.813 85.045c-.345 6.871-2.363 13.484-5.766 18.897-3.404 5.412-8.02 9.348-13.191 11.247-5.171 1.898-10.633 1.663-15.608-.673-4.975-2.336-9.209-6.653-12.1-12.336" stroke="#F428B4" style="stroke:color(display-p3 .9569 .1569 .7059);stroke-opacity:1" stroke-width="1.8" stroke-linecap="round" stroke-linejoin="round"/><path d="m43.24 105.888.355-10.501 6.889 5.378-7.244 5.123Z" fill="#F428B4" style="fill:color(display-p3 .9569 .1569 .7059);fill-opacity:1"/><path d="M42.263 82.461c.36-6.968 2.441-13.663 5.938-19.105 3.497-5.443 8.226-9.347 13.495-11.141 5.27-1.795 10.803-1.386 15.79 1.167 4.989 2.553 9.169 7.116 11.93 13.021" stroke="#F428B4" style="stroke:color(display-p3 .9569 .1569 .7059);stroke-opacity:1" stroke-width="1.8" stroke-linecap="round" stroke-linejoin="round"/><path d="m92.409 62.816-.711 10.366-6.69-5.719 7.4-4.647Z" fill="#F428B4" style="fill:color(display-p3 .9569 .1569 .7059);fill-opacity:1"/><path d="m123.431 127.932 59.155 3.02c.525.014 1.047-.217 1.483-.657.436-.439.762-1.062.924-1.769l6.003-26.251c.087-.392.111-.803.069-1.2a3.184 3.184 0 0 0-.312-1.095 2.149 2.149 0 0 0-.632-.772 1.463 1.463 0 0 0-.825-.292l-59.155-3.02c-.524-.015-1.046.216-1.483.656-.436.44-.761 1.062-.924 1.769l-6.002 26.251c-.08.392-.097.798-.051 1.191.045.393.153.762.315 1.083.162.32.375.583.623.771.248.188.525.295.812.315ZM134.175 71.376l59.155 3.02c.524.014 1.046-.217 1.483-.657.436-.44.761-1.062.924-1.769l6.002-26.25c.088-.393.112-.803.07-1.201a3.165 3.165 0 0 0-.313-1.095 2.136 2.136 0 0 0-.631-.772 1.467 1.467 0 0 0-.825-.292l-59.155-3.02c-.525-.015-1.047.216-1.483.656-.436.44-.762 1.062-.924 1.769l-6.003 26.251a3.844 3.844 0 0 0-.051 1.19c.046.394.154.763.316 1.084.162.32.375.583.623.771.247.188.525.295.812.314Z" fill="#66CFFF" style="fill:color(display-p3 .4 .8118 1);fill-opacity:1"/><path d="m119.935 123.999 59.155 3.02c.525.014 1.047-.217 1.483-.657.436-.439.762-1.062.925-1.768l6.002-26.252c.088-.392.111-.802.069-1.2a3.185 3.185 0 0 0-.312-1.095 2.147 2.147 0 0 0-.632-.771 1.462 1.462 0 0 0-.825-.293l-59.155-3.02c-.524-.014-1.046.217-1.482.656-.437.44-.762 1.062-.925 1.769l-6.002 26.251a3.815 3.815 0 0 0-.051 1.191c.046.393.153.763.315 1.083.162.32.375.584.623.771.248.188.525.295.812.315Z" fill="#4D71DA" style="fill:color(display-p3 .302 .4431 .8549);fill-opacity:1"/><path d="m119.935 123.999 59.155 3.02c.525.014 1.047-.217 1.483-.657.436-.439.762-1.062.925-1.768l6.002-26.252c.088-.392.111-.802.069-1.2a3.185 3.185 0 0 0-.312-1.095 2.147 2.147 0 0 0-.632-.771 1.462 1.462 0 0 0-.825-.293l-59.155-3.02c-.524-.014-1.046.217-1.482.656-.437.44-.762 1.062-.925 1.769l-6.002 26.251a3.815 3.815 0 0 0-.051 1.191c.046.393.153.763.315 1.083.162.32.375.584.623.771.248.188.525.295.812.315Z" fill="#4D71DA" style="fill:color(display-p3 .302 .4431 .8549);fill-opacity:1"/><path d="M169.009 108.324c-.789-1.507-.289-3.923 1.118-5.395 1.407-1.472 3.187-1.444 3.976.063.79 1.507.289 3.923-1.117 5.395-1.407 1.472-3.187 1.444-3.977-.063Z" fill="#FBFCFF" style="fill:color(display-p3 .9833 .9875 1);fill-opacity:1"/><path d="m165.757 118.797 5.578.301c.647-.005 1.286-.3 1.823-.841.537-.54.945-1.298 1.162-2.161.234-.817.325-1.69.265-2.544a6.437 6.437 0 0 0-.61-2.364c-.34-.698-.801-1.262-1.343-1.643a2.884 2.884 0 0 0-1.772-.546c-1.426.026-2.833.675-4.024 1.854-1.19 1.18-2.104 2.831-2.611 4.721a3.239 3.239 0 0 0-.152 1.156c.019.391.109.765.261 1.086.153.321.363.579.612.751.249.171.528.25.811.23Z" fill="#FBFCFF" style="fill:color(display-p3 .9833 .9875 1);fill-opacity:1"/><path d="m143.201 111.487 15.672.822a.655.655 0 0 0 .482-.223c.141-.148.243-.355.291-.587l.659-2.807a1.48 1.48 0 0 0 .023-.445 1.273 1.273 0 0 0-.112-.409.876.876 0 0 0-.225-.299.586.586 0 0 0-.299-.136l-15.673-.823a.656.656 0 0 0-.481.224 1.2 1.2 0 0 0-.292.587l-.658 2.807a1.48 1.48 0 0 0-.023.445c.015.147.053.287.111.409a.866.866 0 0 0 .226.299c.09.075.192.121.299.136Z" fill="#F428B4" style="fill:color(display-p3 .9569 .1569 .7059);fill-opacity:1"/><path d="m132.122 67.582 59.155 3.02c.524.014 1.046-.217 1.482-.657.437-.44.762-1.062.925-1.769l6.002-26.25c.088-.393.112-.804.07-1.201a3.165 3.165 0 0 0-.313-1.096 2.129 2.129 0 0 0-.632-.77 1.463 1.463 0 0 0-.824-.294l-59.155-3.02c-.525-.014-1.047.217-1.483.657-.436.44-.762 1.062-.925 1.769l-6.002 26.251a3.844 3.844 0 0 0-.051 1.19c.046.394.154.763.316 1.084.162.32.374.583.622.77.248.188.526.296.813.316Z" fill="#4D71DA" style="fill:color(display-p3 .302 .4431 .8549);fill-opacity:1"/><path d="m132.122 67.582 59.155 3.02c.524.014 1.046-.217 1.482-.657.437-.44.762-1.062.925-1.769l6.002-26.25c.088-.393.112-.804.07-1.201a3.165 3.165 0 0 0-.313-1.096 2.129 2.129 0 0 0-.632-.77 1.463 1.463 0 0 0-.824-.294l-59.155-3.02c-.525-.014-1.047.217-1.483.657-.436.44-.762 1.062-.925 1.769l-6.002 26.251a3.844 3.844 0 0 0-.051 1.19c.046.394.154.763.316 1.084.162.32.374.583.622.77.248.188.526.296.813.316Z" fill="#4D71DA" style="fill:color(display-p3 .302 .4431 .8549);fill-opacity:1"/><path d="M181.196 51.906c-.79-1.507-.289-3.922 1.117-5.395 1.407-1.472 3.187-1.444 3.977.064.789 1.507.288 3.922-1.118 5.394-1.407 1.473-3.187 1.444-3.976-.063Z" fill="#FBFCFF" style="fill:color(display-p3 .9833 .9875 1);fill-opacity:1"/><path d="m177.944 62.38 5.578.3c.647-.005 1.286-.3 1.823-.84.538-.54.945-1.299 1.162-2.162.234-.816.325-1.69.265-2.544a6.454 6.454 0 0 0-.609-2.364c-.34-.698-.802-1.261-1.344-1.642a2.877 2.877 0 0 0-1.771-.546c-1.427.026-2.834.674-4.025 1.854-1.19 1.18-2.103 2.83-2.611 4.72a3.255 3.255 0 0 0-.152 1.156c.019.392.109.765.262 1.086.152.321.363.58.611.75.249.172.528.252.811.231Z" fill="#FBFCFF" style="fill:color(display-p3 .9833 .9875 1);fill-opacity:1"/><path d="m155.387 55.07 15.673.822a.659.659 0 0 0 .482-.224 1.21 1.21 0 0 0 .291-.587l.658-2.807c.031-.146.038-.297.023-.445a1.251 1.251 0 0 0-.111-.408.867.867 0 0 0-.226-.3.59.59 0 0 0-.299-.136l-15.672-.822a.656.656 0 0 0-.482.224 1.201 1.201 0 0 0-.291.587l-.659 2.807c-.03.146-.038.297-.022.445.015.147.053.286.111.408a.877.877 0 0 0 .225.3.598.598 0 0 0 .299.136Z" fill="#F428B4" style="fill:color(display-p3 .9569 .1569 .7059);fill-opacity:1"/><path d="m149.701 48.052-8.182 8.196M143.504 47.703l4.221 8.77" stroke="#FBFCFF" style="stroke:color(display-p3 .9833 .9875 1);stroke-opacity:1" stroke-width="1.8" stroke-linecap="round" stroke-linejoin="round"/><path d="m158.273 73.693-3.648 14.737m0 0 3.026-1.402m-3.026 1.402-1.866-2.443M149.217 134.67l-3.648 14.737m0 0 3.026-1.402m-3.026 1.402-1.867-2.443M106.754 171.687l-15.18-.2m0 0 2.053 2.627m-2.053-2.627 1.954-2.374" stroke="#000040" style="stroke:color(display-p3 0 0 .251);stroke-opacity:1" stroke-linecap="round" stroke-linejoin="round"/><path d="m138.736 107.551-6.186 4.587-2.59-7.137" stroke="#FBFCFF" style="stroke:color(display-p3 .9833 .9875 1);stroke-opacity:1" stroke-width="2" stroke-linecap="round" stroke-linejoin="round"/><path d="m116.915 187.087 59.155 3.02c.525.014 1.047-.217 1.483-.656.436-.44.762-1.063.924-1.769l6.003-26.252c.087-.392.111-.802.069-1.2a3.186 3.186 0 0 0-.312-1.095 2.147 2.147 0 0 0-.632-.771 1.454 1.454 0 0 0-.825-.293l-59.155-3.02c-.524-.014-1.046.217-1.483.656-.436.44-.761 1.062-.924 1.769l-6.002 26.251c-.08.392-.097.798-.051 1.191.045.393.153.763.315 1.083.162.32.375.584.623.771.248.188.525.295.812.315Z" fill="#4D71DA" style="fill:color(display-p3 .302 .4431 .8549);fill-opacity:1"/><path d="m120.538 191.655 59.155 3.02c.525.014 1.047-.217 1.483-.656.436-.44.762-1.063.924-1.769l6.003-26.252c.087-.392.111-.802.069-1.2a3.186 3.186 0 0 0-.312-1.095 2.139 2.139 0 0 0-.632-.771 1.454 1.454 0 0 0-.825-.293l-59.155-3.02c-.524-.014-1.046.217-1.483.656-.436.44-.761 1.062-.924 1.769l-6.002 26.251c-.08.392-.097.798-.051 1.191.045.393.153.763.315 1.083.162.32.375.584.623.771.248.188.525.295.812.315Z" fill="#66CFFF" style="fill:color(display-p3 .4 .8118 1);fill-opacity:1"/><path d="m116.915 187.087 59.155 3.02c.525.014 1.047-.217 1.483-.656.436-.44.762-1.063.924-1.769l6.003-26.252c.087-.392.111-.802.069-1.2a3.186 3.186 0 0 0-.312-1.095 2.147 2.147 0 0 0-.632-.771 1.454 1.454 0 0 0-.825-.293l-59.155-3.02c-.524-.014-1.046.217-1.483.656-.436.44-.761 1.062-.924 1.769l-6.002 26.251c-.08.392-.097.798-.051 1.191.045.393.153.763.315 1.083.162.32.375.584.623.771.248.188.525.295.812.315Z" fill="#4D71DA" style="fill:color(display-p3 .302 .4431 .8549);fill-opacity:1"/><path d="M165.989 171.412c-.789-1.508-.289-3.923 1.118-5.395 1.406-1.472 3.187-1.444 3.976.063.789 1.507.289 3.923-1.118 5.395-1.406 1.472-3.186 1.444-3.976-.063Z" fill="#FBFCFF" style="fill:color(display-p3 .9833 .9875 1);fill-opacity:1"/><path d="m162.738 181.885 5.578.301c.646-.006 1.285-.3 1.823-.841.537-.54.944-1.298 1.161-2.161a7.42 7.42 0 0 0 .265-2.545 6.445 6.445 0 0 0-.609-2.363c-.34-.698-.801-1.262-1.344-1.643a2.88 2.88 0 0 0-1.771-.546c-1.426.026-2.834.674-4.024 1.854-1.191 1.18-2.104 2.831-2.611 4.721a3.256 3.256 0 0 0-.153 1.155c.019.392.11.766.262 1.087.153.321.363.579.612.75.248.172.527.251.811.231Z" fill="#FBFCFF" style="fill:color(display-p3 .9833 .9875 1);fill-opacity:1"/><path d="m140.182 174.575 15.672.822a.657.657 0 0 0 .482-.223c.141-.147.243-.355.291-.587l.659-2.807c.03-.146.038-.298.022-.445a1.248 1.248 0 0 0-.111-.409.876.876 0 0 0-.225-.299.594.594 0 0 0-.299-.136L141 169.668a.66.66 0 0 0-.482.224c-.14.147-.243.354-.291.587l-.658 2.807a1.448 1.448 0 0 0-.023.445c.015.147.053.287.111.409a.866.866 0 0 0 .226.299c.09.075.192.121.299.136Z" fill="#F428B4" style="fill:color(display-p3 .9569 .1569 .7059);fill-opacity:1"/><path d="m135.717 170.638-6.186 4.587-2.59-7.137" stroke="#FBFCFF" style="stroke:color(display-p3 .9833 .9875 1);stroke-opacity:1" stroke-width="2" stroke-linecap="round" stroke-linejoin="round"/><path d="m20.714 180.932 59.154 3.02c.525.015 1.047-.216 1.483-.656.436-.439.762-1.062.925-1.769l6.002-26.251a3.73 3.73 0 0 0 .07-1.2 3.18 3.18 0 0 0-.313-1.096 2.14 2.14 0 0 0-.632-.771 1.47 1.47 0 0 0-.825-.293l-59.154-3.02c-.525-.014-1.047.217-1.483.657-.437.439-.762 1.062-.925 1.769l-6.002 26.251c-.08.391-.097.798-.051 1.191.046.392.153.762.316 1.083.162.32.374.583.622.771.248.187.525.295.813.314Z" fill="#4D71DA" style="fill:color(display-p3 .302 .4431 .8549);fill-opacity:1"/><path d="m23.24 185.495 59.155 3.02c.525.015 1.047-.216 1.483-.656.436-.439.762-1.062.924-1.769l6.002-26.251a3.73 3.73 0 0 0 .07-1.2 3.18 3.18 0 0 0-.312-1.096 2.139 2.139 0 0 0-.632-.771 1.47 1.47 0 0 0-.825-.293l-59.155-3.02c-.524-.014-1.046.217-1.483.657-.436.439-.761 1.062-.924 1.769l-6.002 26.251c-.08.391-.097.798-.051 1.191.045.392.153.762.315 1.082.162.321.375.584.623.772.248.187.525.295.812.314Z" fill="#66CFFF" style="fill:color(display-p3 .4 .8118 1);fill-opacity:1"/><path d="m20.714 180.932 59.154 3.02c.525.015 1.047-.216 1.483-.656.436-.439.762-1.062.925-1.769l6.002-26.251a3.73 3.73 0 0 0 .07-1.2 3.18 3.18 0 0 0-.313-1.096 2.14 2.14 0 0 0-.632-.771 1.47 1.47 0 0 0-.825-.293l-59.154-3.02c-.525-.014-1.047.217-1.483.657-.437.439-.762 1.062-.925 1.769l-6.002 26.251c-.08.391-.097.798-.051 1.191.046.392.153.762.316 1.083.162.32.374.583.622.771.248.187.525.295.813.314Z" fill="#4D71DA" style="fill:color(display-p3 .302 .4431 .8549);fill-opacity:1"/><path d="M69.787 165.257c-.789-1.507-.288-3.922 1.118-5.395 1.407-1.472 3.187-1.444 3.976.064.79 1.507.29 3.922-1.117 5.394-1.407 1.473-3.187 1.444-3.977-.063Z" fill="#FBFCFF" style="fill:color(display-p3 .9833 .9875 1);fill-opacity:1"/><path d="m66.537 175.73 5.578.301c.647-.005 1.286-.3 1.823-.84.537-.541.945-1.299 1.162-2.162a7.411 7.411 0 0 0 .265-2.544 6.454 6.454 0 0 0-.61-2.364c-.34-.698-.8-1.261-1.343-1.642a2.869 2.869 0 0 0-1.772-.546c-1.426.026-2.833.674-4.024 1.854-1.19 1.179-2.104 2.83-2.611 4.721a3.25 3.25 0 0 0-.152 1.155c.019.391.109.765.261 1.086.153.321.363.579.612.751.249.171.528.25.811.23Z" fill="#FBFCFF" style="fill:color(display-p3 .9833 .9875 1);fill-opacity:1"/><path d="M66.06 81.314c-1.135-2.167-.415-5.642 1.608-7.76 2.023-2.117 4.584-2.076 5.72.092 1.135 2.168.415 5.642-1.608 7.76-2.024 2.117-4.584 2.076-5.72-.092Z" fill="#66CFFF" style="fill:color(display-p3 .4 .8118 1);fill-opacity:1"/><path d="m61.383 96.38 8.023.433c.93-.008 1.85-.432 2.623-1.21.773-.777 1.359-1.867 1.67-3.109.337-1.174.468-2.43.382-3.66-.086-1.23-.387-2.396-.876-3.4-.49-1.003-1.153-1.814-1.933-2.362-.78-.549-1.655-.818-2.548-.785-2.052.037-4.076.97-5.788 2.666-1.713 1.697-3.026 4.072-3.757 6.791a4.674 4.674 0 0 0-.218 1.662c.027.563.157 1.1.376 1.562.22.462.522.833.88 1.08.358.247.759.36 1.166.331Z" fill="#66CFFF" style="fill:color(display-p3 .4 .8118 1);fill-opacity:1"/><path d="m43.98 168.42 15.673.823a.658.658 0 0 0 .482-.224c.14-.147.243-.354.291-.587l.659-2.807c.03-.146.038-.298.023-.445a1.26 1.26 0 0 0-.112-.409.87.87 0 0 0-.225-.299.598.598 0 0 0-.3-.136l-15.672-.822a.657.657 0 0 0-.481.223 1.21 1.21 0 0 0-.292.587l-.658 2.807a1.46 1.46 0 0 0-.023.445c.015.148.053.287.111.409a.872.872 0 0 0 .226.299.59.59 0 0 0 .299.136Z" fill="#F428B4" style="fill:color(display-p3 .9569 .1569 .7059);fill-opacity:1"/><path d="m39.516 164.483-6.186 4.588-2.59-7.137" stroke="#FBFCFF" style="stroke:color(display-p3 .9833 .9875 1);stroke-opacity:1" stroke-width="2" stroke-linecap="round" stroke-linejoin="round"/></svg>