<svg width="221" height="220" fill="none" xmlns="http://www.w3.org/2000/svg"><path d="M71.93 97.727c.692 0 1.465.112 2.318.334.852.223 1.705.53 2.558.919.853.39 1.705.751 2.558 1.085.853.334 1.625.668 2.318 1.002l-1.279.167c-.426.056-.88.084-1.359.084-.906 0-1.732-.14-2.478-.418a9.312 9.312 0 0 1-2.079-1.085 7.936 7.936 0 0 0-1.918-1.002 14.27 14.27 0 0 0-1.759-.501 3.06 3.06 0 0 0-1.439.334 15.28 15.28 0 0 0-1.279.751c0-.222-.186-.334-.56-.334.374-.39 1.067-.695 2.08-.918 1.012-.223 1.785-.362 2.317-.418Zm10.791 3.758c2.185 0 4.184.389 5.996 1.168-.746.279-1.492.501-2.238.668-.746.167-1.52.279-2.319.334-1.066 0-2.025-.111-2.877-.334.266-.445.532-.723.799-.834.266-.112.48-.446.64-1.002Zm31.417-77.483c7.515 0 14.736 1.03 21.664 3.09 6.929 2.059 13.43 4.926 19.506 8.6 6.075 3.673 11.618 8.154 16.628 13.442 5.009 5.288 9.273 11.049 12.79 17.283 3.518 6.234 6.289 13.025 8.314 20.373 2.025 7.347 3.011 14.917 2.958 22.71 0 7.848-.986 15.391-2.958 22.627-1.972 7.236-4.716 14.027-8.234 20.372a82.1 82.1 0 0 1-12.87 17.367c-5.063 5.232-10.579 9.685-16.548 13.359-5.969 3.674-12.471 6.568-19.506 8.684-7.035 2.115-14.283 3.145-21.744 3.089-7.514 0-14.736-1.03-21.664-3.089-6.928-2.06-13.43-4.927-19.505-8.6-6.076-3.674-11.618-8.155-16.628-13.443s-9.273-11.049-12.79-17.283c-3.518-6.234-6.29-13.025-8.315-20.373-2.025-7.347-3.01-14.917-2.957-22.71 0-7.848.986-15.39 2.957-22.627 1.972-7.236 4.717-14.027 8.234-20.372a82.135 82.135 0 0 1 12.87-17.367c5.064-5.233 10.58-9.685 16.549-13.36 5.969-3.673 12.47-6.567 19.505-8.683 7.035-2.115 14.283-3.145 21.744-3.089Zm60.915 46.34a96.236 96.236 0 0 0-2.238-3.507 448.111 448.111 0 0 0-2.318-3.424c-.107.501-.24.863-.4 1.086-.16.222-.266.723-.32 1.503 0 .5.187.974.56 1.419.373.445.853.89 1.439 1.336a7.07 7.07 0 0 0 1.759 1.002c.586.222 1.092.417 1.518.584Zm-5.516-8.183c0 .445-.079.751-.239.918h.479c.213 0 .373.028.48.084l-.72-1.002ZM114.138 184.31c6.076 0 12.018-.807 17.827-2.422a71.964 71.964 0 0 0 16.468-6.846c5.17-2.95 9.966-6.568 14.389-10.854a75.929 75.929 0 0 0 11.592-14.361 143.025 143.025 0 0 1-1.999-5.094 15.263 15.263 0 0 1-.959-5.343c0-2.004.08-3.618.24-4.843.16-1.224.346-2.31.559-3.256.214-.946.32-1.753.32-2.421 0-.668-.08-1.531-.24-2.589-.159-1.057-.612-2.198-1.359-3.423-.746-1.225-1.732-2.95-2.957-5.177.053-.389.133-.918.239-1.586.107-.668.214-1.364.32-2.087a8.64 8.64 0 0 0 .08-2.004c-.053-.612-.186-1.141-.4-1.587a26.024 26.024 0 0 1-4.316-.918c-1.493-.445-2.825-1.113-3.997-2.004l.479-.417c-.693.167-1.385.389-2.078.668-.693.278-1.359.584-1.999.918a6.526 6.526 0 0 1-2.078.668c-.746.111-1.466.223-2.159.334l-1.279-.167.24-.584c-.746.222-1.545.501-2.398.834-.853.334-1.679.501-2.478.501-.533 0-1.306-.194-2.319-.584a24.928 24.928 0 0 1-3.037-1.419 16.966 16.966 0 0 1-2.718-1.837c-.8-.668-1.199-1.308-1.199-1.921l.159-.25a4.376 4.376 0 0 0-1.039-.919 23.489 23.489 0 0 1-1.199-.834 8.419 8.419 0 0 1-1.039-.919 1.381 1.381 0 0 1-.4-1.169l.879-.751-1.838-.25-.64-2.506c.107.279.347.39.72.334.373-.055.666-.167.879-.334l-2.878-1.586 1.999-5.344c-.746-2.894-.933-5.12-.56-6.68.373-1.558 1.093-2.838 2.159-3.84a51.278 51.278 0 0 1 3.517-3.006c1.279-1.002 2.585-2.365 3.917-4.09l-.24-1.003 5.276-6.68 1.199-.166c1.493 0 3.171-.056 5.037-.167a67.605 67.605 0 0 0 5.676-.585c1.918-.278 3.81-.556 5.675-.835 1.866-.278 3.571-.64 5.117-1.085a81.02 81.02 0 0 0-5.356-6.012 72.17 72.17 0 0 0-5.996-5.427c-.586.223-1.306.529-2.158.919-.853.39-1.706.89-2.559 1.503-.852.612-1.518 1.28-1.998 2.003-.48.724-.773 1.475-.879 2.255l.479 1.586c-.959 1.614-2.025 2.616-3.197 3.006-1.173.39-2.372.612-3.598.668a44.134 44.134 0 0 1-3.837 0 8.319 8.319 0 0 0-3.837.751l-1.279-2.838 1.199-4.843-1.359-2.087 13.83-4.51c-.586-1.558-1.546-2.727-2.878-3.506-1.332-.78-2.798-1.169-4.397-1.169v-.835l4.477-.751a71.276 71.276 0 0 0-15.429-5.845 67.14 67.14 0 0 0-16.388-2.004c-4.636 0-9.22.474-13.75 1.42-4.53.946-8.9 2.31-13.11 4.091-4.21 1.781-8.287 4.008-12.23 6.68a69.084 69.084 0 0 0-10.793 9.017c1.386 0 2.452.362 3.198 1.085.746.724 1.439 1.531 2.078 2.422.64.89 1.306 1.697 1.999 2.42.692.724 1.625 1.114 2.798 1.17l1.279-1.002-.16-1.837 2.638-3.924-2.079-6.179a22.59 22.59 0 0 0 1.2-.835c.532-.39.986-.584 1.358-.584 1.6 0 2.825.083 3.678.25.852.167 1.599.473 2.238.919.64.445 1.2 1.085 1.679 1.92.48.835 1.226 1.893 2.238 3.173l2.878-2.338c.533.223 1.386.584 2.558 1.085a31.27 31.27 0 0 1 3.598 1.837c1.225.724 2.265 1.475 3.117 2.255.853.779 1.306 1.503 1.359 2.17 0 .835-.293 1.503-.879 2.004-.586.501-1.359.919-2.318 1.253-.96.334-1.946.584-2.958.751-1.013.167-2.025.39-3.038.668-1.013.279-1.785.557-2.318.835-.533.278-.853.752-.96 1.42l4.637 1.586a26.925 26.925 0 0 1-3.437 2.588 43.401 43.401 0 0 1-3.837 2.171l.32 1.42-7.355 3.005v2.338l-.56.25.4-2.922-.32-.083c-.373 0-.586.083-.64.25-.053.167-.08.362-.08.585 0 .222.054.445.16.668.107.222.134.39.08.5l-1.039-.584.16.334c0 .167.08.418.24.752.16.334.373.64.64.918.266.278.479.557.639.835.16.278.266.418.32.418 0 .166-.107.334-.32.5-.213.167-.48.279-.8.334-.32.056-.532.14-.64.25-.106.112-.106.14 0 .084.747 0 .907.056.48.167-.426.112-1.092.39-1.998.835-.906.446-1.732 1.086-2.478 1.92-.746.836-1.173 2.06-1.28 3.674 0 .947.028 1.865.08 2.756.054.89.027 1.809-.08 2.755-.745-2.115-1.864-3.73-3.357-4.843-1.492-1.113-3.304-1.67-5.436-1.67l-3.437.334 1.679 1.17c-.906-.112-1.839-.223-2.798-.335-.96-.11-1.946-.139-2.958-.083-1.013.056-1.919.278-2.718.668-.8.39-1.599.974-2.398 1.753l-.48 3.758c0 1.78.373 3.228 1.12 4.341.745 1.113 2.051 1.698 3.916 1.754 1.6 0 3.171-.251 4.717-.752a45.363 45.363 0 0 0 4.556-1.753 34.598 34.598 0 0 1-1.598 3.506 13.52 13.52 0 0 0-1.28 3.674l1.04.501c1.279-.89 2.451-1.03 3.517-.417 1.066.612 2.105 1.503 3.118 2.672a2626.98 2626.98 0 0 0 3.118 3.59c1.066 1.224 2.211 2.115 3.437 2.672l-2.718 1.502-6.395-3.757c.053.112.106.362.16.752.053.389.026.473-.08.25l-2.878-5.093c-1.706-.056-3.518-.334-5.436-.835a42.547 42.547 0 0 1-5.836-2.004 47.237 47.237 0 0 1-5.516-2.755 44.746 44.746 0 0 1-4.716-3.173l-.56 8.934c0 6.791.88 13.415 2.638 19.872 1.759 6.456 4.237 12.524 7.435 18.201a72.483 72.483 0 0 0 11.751 15.53 74.06 74.06 0 0 0 15.429 11.94 8.645 8.645 0 0 1-.08-3.507c.213-1.169.48-2.338.8-3.507.319-1.169.665-2.338 1.038-3.506a11.74 11.74 0 0 0 .56-3.591c0-1.781-.266-3.646-.8-5.594a69.71 69.71 0 0 0-1.918-5.928 81.395 81.395 0 0 0-2.478-5.928c-.906-1.948-1.626-3.785-2.159-5.511a55.886 55.886 0 0 1-1.279-4.842c-.32-1.503-.16-2.811.48-3.924l-1.2-.585c.32-.779.747-1.531 1.28-2.254a59.541 59.541 0 0 1 1.679-2.171 8.568 8.568 0 0 0 1.359-2.338 8.49 8.49 0 0 0 .56-2.505c0-.556-.107-1.141-.32-1.753-.214-.612-.4-1.197-.56-1.753l1.679.417c.906-2.171 2.131-3.646 3.677-4.425 1.546-.779 3.49-1.197 5.836-1.253.266 0 .826.112 1.678.334.853.223 1.76.529 2.718.919.96.389 1.866.696 2.718.918.853.223 1.493.446 1.919.668 0 .39.213.64.64.752.426.111.666.306.719.584l-.16.668c.16.056.533.251 1.12.585a21.41 21.41 0 0 1 1.918 1.252c.693.501 1.306.946 1.838 1.336.533.389.906.696 1.12.918.959 0 2.265.334 3.917 1.002 1.652.668 3.464 1.503 5.436 2.505a43.56 43.56 0 0 1 5.835 3.59 120.123 120.123 0 0 1 5.436 4.175c1.706 1.392 3.012 2.783 3.918 4.175.906 1.391 1.439 2.616 1.598 3.673l-2.718 3.006c.214 2.839.027 5.01-.559 6.513a8.977 8.977 0 0 1-2.718 3.757c-1.226 1.002-2.638 1.837-4.237 2.505-1.599.668-3.331 1.614-5.196 2.839 0 1.113-.267 2.31-.8 3.59a20.388 20.388 0 0 1-1.998 3.674 11.301 11.301 0 0 1-2.878 2.922c-1.119.779-2.238 1.169-3.358 1.169l-3.357-2.672c.106.111.106.306 0 .584-.107.279-.24.334-.4.167.533 1.058.666 2.283.4 3.674-.267 1.392-.72 2.811-1.359 4.258a32.629 32.629 0 0 1-2.159 4.092 61.92 61.92 0 0 1-2.158 3.256 67.758 67.758 0 0 0 8.634 1.753c2.878.39 5.782.585 8.713.585Z" fill="#4D71DA" style="fill:color(display-p3 .302 .4431 .8549);fill-opacity:1"/><path d="M64.947 97.727c.697 0 1.476.112 2.335.334a15.89 15.89 0 0 1 2.577.919c.86.39 1.718.751 2.577 1.085.86.334 1.638.668 2.336 1.002l-1.289.167a10.6 10.6 0 0 1-1.369.084c-.913 0-1.745-.14-2.496-.418a9.403 9.403 0 0 1-2.094-1.085 8.018 8.018 0 0 0-1.933-1.002 14.464 14.464 0 0 0-1.772-.501c-.537 0-1.02.111-1.45.334-.429.222-.858.473-1.288.751 0-.222-.188-.334-.564-.334.376-.39 1.074-.695 2.094-.918 1.02-.223 1.799-.362 2.336-.418Zm10.871 3.758c2.202 0 4.215.389 6.04 1.168-.751.279-1.503.501-2.254.668a15.68 15.68 0 0 1-2.336.334c-1.074 0-2.04-.111-2.9-.334.27-.445.538-.723.806-.834.269-.112.483-.446.644-1.002Zm31.65-77.483c7.57 0 14.845 1.03 21.825 3.09 6.979 2.059 13.529 4.926 19.65 8.6 6.12 3.673 11.704 8.154 16.751 13.442 5.046 5.288 9.341 11.049 12.885 17.283 3.543 6.234 6.335 13.025 8.375 20.373 2.041 7.347 3.034 14.917 2.98 22.71 0 7.848-.993 15.391-2.98 22.627-1.986 7.236-4.751 14.027-8.295 20.372a82.156 82.156 0 0 1-12.965 17.367c-5.101 5.232-10.658 9.685-16.671 13.359-6.013 3.674-12.563 6.568-19.65 8.684-7.087 2.115-14.388 3.145-21.905 3.089-7.57 0-14.845-1.03-21.824-3.089-6.98-2.06-13.53-4.927-19.65-8.6-6.121-3.674-11.705-8.155-16.751-13.443-5.047-5.288-9.342-11.049-12.886-17.283-3.543-6.234-6.335-13.025-8.375-20.373-2.04-7.347-3.034-14.917-2.98-22.71 0-7.848.993-15.39 2.98-22.627 1.986-7.236 4.751-14.027 8.295-20.372a82.177 82.177 0 0 1 12.966-17.367c5.1-5.233 10.657-9.685 16.67-13.36 6.013-3.673 12.563-6.567 19.65-8.683 7.087-2.115 14.389-3.145 21.905-3.089Zm61.366 46.34a94.821 94.821 0 0 0-2.255-3.507 430.906 430.906 0 0 0-2.335-3.424c-.107.501-.242.863-.403 1.086-.161.222-.268.723-.322 1.503 0 .5.188.974.564 1.419.376.445.859.89 1.45 1.336.59.445 1.181.78 1.771 1.002.591.222 1.101.417 1.53.584Zm-5.556-8.183c0 .445-.081.751-.242.918h.483c.215 0 .376.028.483.084l-.724-1.002Zm-55.81 122.152c6.121 0 12.107-.807 17.959-2.422a72.79 72.79 0 0 0 16.59-6.846c5.208-2.95 10.04-6.568 14.496-10.854a76.082 76.082 0 0 0 11.677-14.361 141.255 141.255 0 0 1-2.013-5.094 15.157 15.157 0 0 1-.967-5.343c0-2.004.081-3.618.242-4.843a36.05 36.05 0 0 1 .564-3.256c.214-.946.322-1.753.322-2.421 0-.668-.081-1.531-.242-2.589-.161-1.057-.617-2.198-1.369-3.423-.751-1.225-1.745-2.95-2.98-5.177.054-.389.135-.918.242-1.586.107-.668.215-1.364.322-2.087a8.589 8.589 0 0 0 .081-2.004c-.054-.612-.188-1.141-.403-1.587a26.4 26.4 0 0 1-4.349-.918c-1.503-.445-2.845-1.113-4.026-2.004l.483-.417a15.11 15.11 0 0 0-2.094.668c-.698.278-1.369.584-2.013.918a6.627 6.627 0 0 1-2.094.668c-.752.111-1.477.223-2.175.334l-1.288-.167.241-.584a31.21 31.21 0 0 0-2.416.834c-.859.334-1.691.501-2.496.501-.537 0-1.315-.194-2.336-.584-1.02-.39-2.04-.863-3.06-1.419a17.124 17.124 0 0 1-2.738-1.837c-.805-.668-1.208-1.308-1.208-1.921l.161-.25a4.384 4.384 0 0 0-1.047-.919 23.847 23.847 0 0 1-1.208-.834 8.42 8.42 0 0 1-1.047-.919c-.322-.334-.456-.724-.402-1.169l.885-.751-1.852-.25-.644-2.506c.107.279.349.39.725.334.376-.055.671-.167.886-.334l-2.9-1.586 2.014-5.344c-.752-2.894-.94-5.12-.564-6.68.376-1.558 1.101-2.838 2.174-3.84a51.723 51.723 0 0 1 3.544-3.006c1.288-1.002 2.604-2.365 3.946-4.09l-.242-1.003 5.316-6.68 1.208-.166c1.503 0 3.194-.056 5.073-.167a68.575 68.575 0 0 0 5.718-.585c1.933-.278 3.839-.556 5.718-.835 1.879-.278 3.597-.64 5.154-1.085a81.038 81.038 0 0 0-5.396-6.012 72.348 72.348 0 0 0-6.04-5.427c-.59.223-1.315.529-2.174.919s-1.718.89-2.577 1.503c-.859.612-1.53 1.28-2.014 2.003-.483.724-.778 1.475-.885 2.255l.483 1.586c-.967 1.614-2.04 2.616-3.221 3.006a13.46 13.46 0 0 1-3.624.668 44.804 44.804 0 0 1-3.866 0 8.436 8.436 0 0 0-3.866.751l-1.288-2.838 1.208-4.843-1.369-2.087 13.932-4.51c-.591-1.558-1.557-2.727-2.899-3.506-1.342-.78-2.819-1.169-4.43-1.169v-.835l4.51-.751a72.127 72.127 0 0 0-15.543-5.845 68.109 68.109 0 0 0-16.509-2.004 68.04 68.04 0 0 0-13.852 1.42A71.532 71.532 0 0 0 80.41 40.2c-4.242 1.781-8.349 4.008-12.322 6.68a69.479 69.479 0 0 0-10.872 9.017c1.396 0 2.47.362 3.222 1.085.751.724 1.45 1.531 2.094 2.422.644.89 1.315 1.697 2.013 2.42.698.724 1.637 1.114 2.819 1.17l1.288-1.002-.161-1.837 2.658-3.924-2.094-6.179c.268-.167.67-.445 1.208-.835.537-.39.993-.584 1.369-.584 1.61 0 2.845.083 3.704.25.86.167 1.611.473 2.255.919.644.445 1.208 1.085 1.691 1.92.484.835 1.235 1.893 2.255 3.173l2.9-2.338c.536.223 1.395.584 2.577 1.085a31.575 31.575 0 0 1 3.624 1.837c1.234.724 2.281 1.475 3.14 2.255.86.779 1.316 1.503 1.37 2.17 0 .835-.296 1.503-.886 2.004-.59.501-1.37.919-2.336 1.253-.966.334-1.96.584-2.98.751a30.1 30.1 0 0 0-3.06.668c-1.02.279-1.798.557-2.335.835-.537.278-.86.752-.967 1.42l4.671 1.586a27.1 27.1 0 0 1-3.463 2.588 43.812 43.812 0 0 1-3.865 2.171l.322 1.42-7.41 3.005v2.338l-.563.25.403-2.922-.322-.083c-.376 0-.591.083-.645.25-.053.167-.08.362-.08.585 0 .222.053.445.16.668.108.222.135.39.081.5l-1.046-.584.16.334c0 .167.081.418.242.752.161.334.376.64.644.918.269.278.484.557.645.835.16.278.268.418.322.418 0 .166-.108.334-.322.5a1.782 1.782 0 0 1-.806.334c-.322.056-.537.14-.644.25-.107.112-.107.14 0 .084.752 0 .913.056.483.167-.43.112-1.1.39-2.013.835-.913.446-1.745 1.086-2.497 1.92-.751.836-1.18 2.06-1.288 3.674 0 .947.027 1.865.08 2.756.054.89.027 1.809-.08 2.755-.752-2.115-1.88-3.73-3.382-4.843-1.504-1.113-3.33-1.67-5.477-1.67l-3.463.334 1.691 1.17c-.912-.112-1.852-.223-2.818-.335-.967-.11-1.96-.139-2.98-.083-1.02.056-1.933.278-2.738.668-.805.39-1.61.974-2.416 1.753l-.483 3.758c0 1.78.376 3.228 1.127 4.341.752 1.113 2.067 1.698 3.946 1.754 1.611 0 3.195-.251 4.752-.752a45.907 45.907 0 0 0 4.59-1.753 34.495 34.495 0 0 1-1.61 3.506 13.454 13.454 0 0 0-1.289 3.674l1.047.501c1.288-.89 2.47-1.03 3.543-.417 1.074.612 2.121 1.503 3.141 2.672a2629.22 2629.22 0 0 0 3.141 3.59c1.074 1.224 2.228 2.115 3.463 2.672l-2.738 1.502-6.443-3.757c.054.112.108.362.161.752.054.389.027.473-.08.25l-2.9-5.093c-1.718-.056-3.543-.334-5.476-.835a43.075 43.075 0 0 1-5.879-2.004 47.727 47.727 0 0 1-5.556-2.755 45.109 45.109 0 0 1-4.752-3.173l-.564 8.934a74.76 74.76 0 0 0 2.658 19.872c1.772 6.456 4.268 12.524 7.49 18.201a72.539 72.539 0 0 0 11.838 15.53 74.54 74.54 0 0 0 15.543 11.94 8.582 8.582 0 0 1-.08-3.507 41.25 41.25 0 0 1 .805-3.507 86.259 86.259 0 0 1 1.047-3.506 11.66 11.66 0 0 0 .563-3.591c0-1.781-.268-3.646-.805-5.594a69.372 69.372 0 0 0-1.933-5.928 81.059 81.059 0 0 0-2.496-5.928c-.913-1.948-1.638-3.785-2.175-5.511a55.547 55.547 0 0 1-1.288-4.842c-.323-1.503-.161-2.811.483-3.924l-1.208-.585c.322-.779.752-1.531 1.288-2.254.537-.724 1.101-1.447 1.692-2.171a8.558 8.558 0 0 0 1.369-2.338 8.44 8.44 0 0 0 .563-2.505c0-.556-.107-1.141-.322-1.753a33.248 33.248 0 0 1-.564-1.753l1.692.417c.912-2.171 2.147-3.646 3.704-4.425 1.557-.779 3.517-1.197 5.88-1.253.268 0 .831.112 1.69.334.86.223 1.772.529 2.739.919.966.389 1.879.696 2.738.918.859.223 1.503.446 1.932.668 0 .39.215.64.645.752.43.111.67.306.724.584l-.16.668c.16.056.536.251 1.127.585.59.334 1.235.751 1.933 1.252s1.315.946 1.852 1.336c.537.389.913.696 1.127.918.967 0 2.282.334 3.947 1.002 1.664.668 3.489 1.503 5.476 2.505a44.037 44.037 0 0 1 5.879 3.59 121.234 121.234 0 0 1 5.476 4.175c1.718 1.392 3.033 2.783 3.946 4.175.913 1.391 1.45 2.616 1.611 3.673l-2.738 3.006c.214 2.839.027 5.01-.564 6.513a8.986 8.986 0 0 1-2.738 3.757c-1.235 1.002-2.658 1.837-4.268 2.505-1.611.668-3.356 1.614-5.235 2.839 0 1.113-.269 2.31-.805 3.59a20.284 20.284 0 0 1-2.014 3.674 11.33 11.33 0 0 1-2.899 2.922c-1.127.779-2.255 1.169-3.382 1.169l-3.383-2.672c.108.111.108.306 0 .584-.107.279-.241.334-.402.167.536 1.058.67 2.283.402 3.674-.268 1.392-.725 2.811-1.369 4.258a32.492 32.492 0 0 1-2.174 4.092 61.956 61.956 0 0 1-2.175 3.256c2.9.779 5.799 1.364 8.698 1.753 2.899.39 5.825.585 8.778.585Z" fill="#66CFFF" style="fill:color(display-p3 .4 .8118 1);fill-opacity:1"/><path d="M190.63 84.683h-37.839l-3.88 2.547A1.894 1.894 0 0 1 146 85.653v-26.68A4.995 4.995 0 0 1 150.972 54h39.658a4.996 4.996 0 0 1 4.972 4.972v20.86a5.057 5.057 0 0 1-4.972 4.851Z" fill="#F428B4" style="fill:color(display-p3 .9569 .1569 .7059);fill-opacity:1"/><path d="M170.378 66.128h13.22M170.378 73.04h8.005M163.465 66.128h-6.792v6.791h6.792v-6.791Z" stroke="#000040" style="stroke:color(display-p3 0 0 .251);stroke-opacity:1" stroke-width="1.8" stroke-linecap="round" stroke-linejoin="round"/><path d="M51.814 150.567h37.931l3.89 2.553a1.897 1.897 0 0 0 2.918-1.581v-26.746a5.011 5.011 0 0 0-4.984-4.985H51.814a5.013 5.013 0 0 0-4.984 4.985v20.911a5.07 5.07 0 0 0 4.984 4.863Z" fill="#000040" style="fill:color(display-p3 0 0 .251);fill-opacity:1"/><path d="M85.55 131.936H72.297M80.322 139.213h-8.024M56.531 131.936h6.808v6.808h-6.808v-6.808Z" stroke="#FBFCFF" style="stroke:color(display-p3 .9833 .9875 1);stroke-opacity:1" stroke-width="1.8" stroke-linecap="round" stroke-linejoin="round"/></svg>